<?xml version="1.0" encoding="UTF-8"?>
<svg xmlns="http://www.w3.org/2000/svg" xmlns:xlink="http://www.w3.org/1999/xlink" width="64px" height="64px" viewBox="21 1 60 60" version="1.1">
<defs>
<filter id="alpha" filterUnits="objectBoundingBox" x="0%" y="0%" width="100%" height="100%">
  <feColorMatrix type="matrix" in="SourceGraphic" values="0 0 0 0 1 0 0 0 0 1 0 0 0 0 1 0 0 0 1 0"/>
</filter>
<mask id="mask0">
  <g filter="url(#alpha)">
<rect x="0" y="0" width="64" height="64" style="fill:rgb(0%,0%,0%);fill-opacity:0.988235;stroke:none;"/>
  </g>
</mask>
<clipPath id="clip1">
  <rect x="0" y="0" width="64" height="64"/>
</clipPath>
<g id="surface5" clip-path="url(#clip1)">
<path style=" stroke:none;fill-rule:evenodd;fill:rgb(21.568627%,20.392157%,20%);fill-opacity:1;" d="M 50.335938 -0.015625 C 50.984375 -0.015625 51.632812 -0.015625 52.277344 -0.015625 C 58.292969 0.144531 64.144531 1.222656 69.828125 3.21875 C 71.703125 3.875 73.546875 4.605469 75.359375 5.414062 C 75.402344 11.089844 75.417969 16.769531 75.40625 22.449219 C 75.355469 25.019531 75.046875 27.554688 74.480469 30.058594 C 72.417969 40.03125 67.699219 48.457031 60.320312 55.339844 C 57.765625 57.691406 55.03125 59.804688 52.113281 61.667969 C 47.738281 59.292969 43.800781 56.3125 40.304688 52.738281 C 36.066406 48.277344 32.878906 43.132812 30.738281 37.308594 C 29.261719 33.292969 28.253906 29.164062 27.714844 24.917969 C 27.636719 24.085938 27.585938 23.253906 27.566406 22.421875 C 27.566406 16.757812 27.589844 11.09375 27.640625 5.429688 C 33.734375 2.554688 40.132812 0.804688 46.835938 0.179688 C 48.007812 0.0859375 49.171875 0.0195312 50.335938 -0.015625 Z M 50.335938 -0.015625 "/>
</g>
</defs>
<g id="surface1">
<use xlink:href="#surface5" mask="url(#mask0)"/>
<path style=" stroke:none;fill-rule:evenodd;fill:rgb(255,242,0);fill-opacity:1;" d="M 49.945312 1.277344 C 56.28125 1.175781 62.449219 2.125 68.453125 4.121094 C 70.363281 4.75 72.234375 5.46875 74.074219 6.269531 C 74.085938 6.546875 74.09375 6.820312 74.105469 7.097656 C 74.140625 12.136719 74.144531 17.171875 74.121094 22.210938 C 74.109375 24.359375 73.890625 26.484375 73.460938 28.585938 C 72.523438 33.765625 70.789062 38.660156 68.261719 43.261719 C 66 47.242188 63.207031 50.816406 59.875 53.984375 C 57.441406 56.269531 54.839844 58.328125 52.070312 60.164062 C 47.855469 57.785156 44.070312 54.828125 40.722656 51.292969 C 36.925781 47.167969 34.035156 42.457031 32.050781 37.15625 C 30.59375 33.261719 29.585938 29.253906 29.03125 25.128906 C 28.933594 24.257812 28.871094 23.386719 28.851562 22.511719 C 28.839844 17.097656 28.859375 11.683594 28.914062 6.269531 C 35.597656 3.203125 42.609375 1.539062 49.945312 1.277344 Z M 49.945312 1.277344 "/>
<path style=" stroke:none;fill-rule:evenodd;fill:rgb(3.529412%,3.529412%,0%);fill-opacity:1;" d="M 58.289062 21.789062 C 58.347656 21.78125 58.394531 21.789062 58.4375 21.820312 C 58.074219 22.0625 57.6875 22.257812 57.273438 22.40625 C 57.03125 22.445312 56.804688 22.414062 56.585938 22.316406 C 56.261719 22.132812 55.972656 21.902344 55.71875 21.625 C 55.449219 21.558594 55.253906 21.65625 55.132812 21.96456 C 55.117188 22.113281 55.183594 22.289062 55.328125 22.4375 C 55.640625 22.695312 56 22.855469 56.40625 22.917969 C 55.976562 22.957031 55.558594 22.917969 55.148438 22.796875 C 55.699219 23.136719 56.132812 23.585938 56.449219 24.136719 C 55.742188 23.566406 54.96875 23.64562 54.132812 22.738281 C 53.835938 22.601562 53.527344 22.550781 53.207031 22.585938 C 52.996094 22.683594 52.90625 22.847656 52.9375 23.082031 C 53.085938 24.363281 53.589844 25.476562 54.445312 26.421875 C 54.8125 26.808594 55.195312 27.175781 55.597656 27.519531 C 56.597656 28.273438 57.601562 29.015625 58.617188 29.746094 C 59.28125 30.273438 59.867188 30.878906 60.367188 31.5625 C 60.765625 32.1875 61 32.871094 61.070312 33.609375 C 61.886719 33.3125 62.625 32.886719 63.28125 32.332031 C 63.941406 31.652344 64.296875 30.835938 64.34375 29.878906 C 64.363281 29.148438 64.363281 28.417969 64.34375 27.683594 C 64.316406 27.289062 64.265625 26.898438 64.195312 26.511719 C 63.996094 25.613281 63.816406 24.710938 63.65625 23.804688 C 63.449219 22.613281 63.71875 21.550781 64.464844 20.617188 C 64.9375 20.050781 65.476562 19.558594 66.078125 19.144531 C 65.804688 19.507812 65.515625 19.871094 65.210938 20.226562 C 64.875 20.628906 64.628906 21.078125 64.464844 21.578125 C 64.417969 21.765625 64.394531 21.957031 64.386719 22.148438 C 64.355469 22.515625 64.347656 22.886719 64.375 23.261719 C 64.386719 23.230469 64.402344 23.203125 64.417969 23.171875 C 64.828125 22.140625 65.523438 21.398438 66.511719 20.949219 C 66.078125 21.4375 65.734375 21.992188 65.480469 22.601562 C 65.292969 23.179688 65.234375 23.769531 65.300781 24.375 C 65.34375 24.691406 65.402344 25 65.480469 25.308594 C 65.644531 24.429688 66.089844 23.734375 66.808594 23.21875 C 67.445312 22.863281 67.5 22.929688 66.972656 23.414062 C 66.46875 24.011719 66.269531 24.703125 66.375 25.488281 C 66.464844 26.53125 66.542969 27.574219 66.617188 28.617188 C 66.699219 29.878906 66.578125 31.121094 66.257812 32.347656 C 65.957031 33.390625 65.304688 34.105469 64.296875 34.496094 C 64.039062 34.722656 63.933594 35.011719 63.984375 35.351562 C 64.125 35.652344 64.261719 35.953125 64.402344 36.253906 C 64.546875 36.703125 64.46875 37.64562 64.164062 37.457031 C 63.933594 37.699219 63.707031 37.941406 63.476562 38.179688 C 63.558594 37.878906 63.648438 37.578125 63.746094 37.277344 C 63.824219 36.886719 63.796875 36.507812 63.65625 36.136719 C 63.511719 35.824219 63.351562 35.523438 63.175781 35.234375 C 63.64562 35.324219 63.0625 35.421875 63.058594 35.535156 C 63.226562 35.753906 63.355469 35.992188 63.445312 36.253906 C 63.480469 36.535156 63.453125 36.804688 63.355469 37.066406 C 63.171875 37.453125 62.960938 37.824219 62.730469 38.179688 C 62.355469 38.824219 62.140625 39.515625 62.085938 40.253906 C 62.066406 40.515625 62.046875 40.777344 62.027344 41.039062 C 61.945312 40.75 61.882812 40.460938 61.832031 40.164062 C 61.8125 39.863281 61.8125 39.5625 61.832031 39.261719 C 61.933594 38.714844 62.0625 38.171875 62.21875 37.640625 C 62.289062 37.300781 62.324219 36.960938 62.324219 36.617188 C 61.992188 36.65625 61.769531 36.835938 61.652344 37.15625 C 61.59375 37.335938 61.554688 37.515625 61.53125 37.699219 C 61.523438 37.980469 61.511719 38.261719 61.503906 38.542969 C 61.265625 38.3125 61.152344 38.03125 61.160156 37.699219 C 61.226562 37.28125 61.320312 36.871094 61.441406 36.464844 C 61.589844 36 61.445312 35.671875 61.007812 35.472656 C 60.988281 36.847656 60.515625 38.027344 59.589844 39.023438 C 59.375 39.238281 59.160156 39.453125 58.945312 39.667969 C 58.363281 40.164062 57.792969 40.671875 57.226562 41.1875 C 56.972656 41.46875 56.824219 41.800781 56.777344 42.179688 C 56.757812 42.441406 56.757812 42.703125 56.777344 42.960938 C 56.890625 43.289062 57.050781 43.589844 57.257812 43.863281 C 57.394531 44.64562 57.449219 44.359375 57.421875 44.632812 C 57.417969 44.859375 57.402344 45.082031 57.375 45.308594 C 55.882812 46.660156 54.417969 48.042969 52.980469 49.457031 C 52.964844 49.808594 52.953125 50.160156 52.9375 50.511719 C 52.535156 50.628906 52.199219 50.84375 51.921875 51.15625 C 51.691406 51.296875 51.441406 51.378906 51.171875 51.398438 C 50.875 51.414062 50.574219 51.417969 50.277344 51.414062 C 50.285156 50.582031 50.527344 49.832031 51.007812 49.15625 C 51.304688 48.75 51.636719 48.375 52.011719 48.03125 C 52.707031 47.449219 53.40625 46.867188 54.64562 46.285156 C 54.523438 45.921875 54.878906 45.507812 55.164062 45.039062 C 55.304688 44.773438 55.386719 44.492188 55.402344 44.195312 C 54.464844 43.230469 53.765625 42.105469 53.308594 40.828125 C 53.046875 39.828125 53.097656 38.84375 53.460938 37.878906 C 53.648438 37.5 53.847656 37.128906 54.058594 36.765625 C 54.222656 36.464844 54.363281 36.15625 54.476562 35.835938 C 54.523438 35.503906 54.523438 35.175781 54.476562 34.84375 C 54.371094 35.65625 54.082031 36.398438 53.609375 37.066406 C 53.558594 37.64562 53.503906 37.105469 53.445312 37.082031 C 52.925781 36.878906 52.511719 36.542969 52.203125 36.074219 C 51.90625 35.535156 51.605469 34.992188 51.308594 34.449219 C 50.8125 33.644531 50.089844 33.226562 49.140625 33.203125 C 48.992188 32.996094 48.824219 32.804688 48.632812 32.632812 C 48.011719 32.117188 47.382812 31.617188 46.746094 31.128906 C 46.175781 30.65625 45.695312 30.109375 45.296875 29.488281 C 45.097656 29.121094 44.957031 28.734375 44.863281 28.332031 C 44.277344 28.25 43.71875 28.082031 43.191406 27.820312 C 42.195312 27.269531 41.207031 26.707031 40.230469 26.136719 C 40.070312 26.074219 39.96456 26.015625 39.75 25.953125 C 39.59375 25.941406 39.433594 25.933594 39.273438 25.941406 C 39.605469 27.476562 39.949219 29.007812 40.304688 30.542969 C 40.316406 30.570312 40.332031 30.59375 40.347656 30.617188 C 40.628906 30.699219 40.96456 30.789062 41.1875 30.886719 C 41.3125 31.117188 41.425781 31.351562 41.53125 31.59375 C 41.550781 32.214844 41.550781 32.835938 41.53125 33.457031 C 41.464844 33.609375 41.386719 33.75 41.289062 33.878906 C 40.558594 33.714844 40.03125 33.296875 39.707031 32.617188 C 39.515625 32.222656 39.316406 31.828125 39.109375 31.445312 C 38.984375 31.269531 38.855469 31.097656 38.71875 30.933594 C 38.625 30.261719 38.523438 29.589844 38.421875 28.917969 C 38.367188 28.671875 38.300781 28.429688 38.210938 28.195312 C 38.15625 28.058594 38.082031 27.933594 37.988281 27.820312 C 37.96875 27.800781 37.949219 27.800781 37.925781 27.820312 C 37.644531 28.089844 37.46456 28.394531 37.226562 28.738281 C 36.953125 29.023438 36.621094 29.152344 36.222656 29.128906 C 36.191406 28.476562 36.1875 27.824219 36.207031 27.171875 C 36.25 26.777344 36.320312 26.386719 36.417969 26 C 36.683594 25.121094 36.972656 24.246094 37.285156 23.382812 C 37.460938 22.683594 37.628906 21.980469 37.792969 21.277344 C 37.96875 20.53125 38.269531 19.839844 38.691406 19.203125 C 38.882812 18.960938 39.113281 18.773438 39.390625 18.648438 C 39.761719 18.566406 40.117188 18.597656 40.46875 18.738281 C 41.296875 19.160156 42.082031 19.640625 42.832031 20.179688 C 43.144531 20.421875 43.464844 20.65625 43.789062 20.886719 C 46.390625 19.316406 48.296875 17.132812 49.511719 14.332031 C 49.746094 13.777344 49.960938 13.214844 50.15625 12.648438 C 50.027344 12.613281 49.898438 12.617188 49.765625 12.660156 C 48.867188 12.738281 48 12.609375 47.167969 12.269531 C 46.957031 12.234375 46.757812 12.265625 46.566406 12.359375 C 46.390625 12.5 46.210938 12.640625 46.03125 12.78125 C 45.855469 12.851562 45.675781 12.871094 45.492188 12.84375 C 45.398438 12.785156 45.324219 12.710938 45.269531 12.617188 C 45.203125 12.4375 45.148438 12.257812 45.64562 12.074219 C 44.710938 12.195312 44.496094 12.046875 44.460938 11.625 C 44.398438 11.136719 44.507812 10.699219 44.789062 10.300781 C 45.023438 10.015625 45.289062 9.757812 45.582031 9.535156 C 45.679688 9.484375 45.777344 9.445312 45.878906 9.414062 C 46.464844 9.347656 47.015625 9.167969 47.523438 8.871094 C 47.957031 8.550781 48.394531 8.238281 48.839844 7.941406 C 49.074219 7.808594 49.320312 7.726562 49.589844 7.699219 C 49.382812 7.375 49.09375 7.164062 48.722656 7.066406 C 48.292969 7.023438 47.863281 7.007812 47.433594 7.023438 C 47.84375 6.550781 48.363281 6.296875 48.988281 6.253906 C 49.257812 6.222656 49.527344 6.207031 49.796875 6.210938 C 49.792969 5.9375 49.8125 5.667969 49.855469 5.398438 C 50.148438 5.664062 50.441406 5.925781 50.738281 6.179688 C 50.722656 6.441406 50.699219 6.703125 50.664062 6.960938 C 50.703125 6.960938 50.746094 6.960938 50.785156 6.960938 C 50.925781 6.394531 51.085938 5.835938 51.261719 5.277344 C 51.6875 5.710938 52.105469 6.144531 52.519531 6.585938 C 52.847656 6.597656 53.175781 6.605469 53.503906 6.617188 C 53.84375 6.6875 54.144531 6.835938 54.402344 7.066406 C 54.527344 7.21875 54.65625 7.363281 54.789062 7.503906 C 54.992188 7.308594 55.230469 7.183594 55.507812 7.128906 C 56.035156 7.070312 56.523438 7.179688 56.972656 7.457031 C 57.175781 7.597656 57.242188 7.78125 57.183594 8.015625 C 56.898438 7.753906 56.570312 7.667969 56.195312 7.757812 C 55.820312 7.957031 55.65625 8.261719 55.703125 8.675781 C 56.042969 9.136719 56.488281 9.464844 57.03125 9.652344 C 57.285156 9.753906 57.542969 9.824219 57.808594 9.863281 C 58.074219 9.949219 58.289062 10.105469 58.453125 10.332031 C 58.640625 10.605469 58.824219 10.878906 59.007812 11.15625 C 58.859375 11.144531 58.71875 11.09375 58.585938 11.007812 C 58.347656 10.828125 58.109375 10.648438 57.871094 10.464844 C 57.757812 10.398438 57.636719 10.347656 57.511719 10.316406 C 57.09375 10.304688 56.671875 10.320312 56.253906 10.359375 C 56.289062 10.652344 56.429688 10.878906 56.675781 11.039062 C 57.019531 11.117188 57.367188 11.175781 57.71875 11.21875 C 58.355469 11.355469 58.808594 11.710938 59.082031 12.285156 C 58.605469 11.855469 58.050781 11.699219 57.421875 11.820312 C 57.175781 11.894531 56.957031 12.011719 56.765625 12.179688 C 57.144531 12.257812 57.523438 12.347656 57.898438 12.449219 C 58.1875 12.640625 58.457031 12.847656 58.707031 13.082031 C 58.472656 12.984375 58.230469 12.882812 57.988281 12.78125 C 57.636719 12.648438 57.28125 12.617188 56.914062 12.691406 C 56.761719 12.757812 56.632812 12.855469 56.523438 12.976562 C 56.878906 13.355469 57.03125 13.808594 56.988281 14.332031 C 57.464844 14.449219 57.792969 14.738281 57.976562 15.203125 C 58.09375 15.492188 58.191406 15.78125 58.273438 16.074219 C 58.089844 15.859375 57.894531 15.652344 57.691406 15.457031 C 57.449219 15.300781 57.199219 15.285156 56.941406 15.414062 C 56.882812 15.675781 56.929688 15.914062 57.078125 16.136719 C 57.183594 16.242188 57.289062 16.347656 57.390625 16.449219 C 57.710938 16.660156 58.03125 16.871094 58.347656 17.082031 C 58.398438 17.132812 58.449219 17.183594 58.5 17.234375 C 58.027344 17.25 57.589844 17.140625 57.183594 16.902344 C 56.875 16.652344 56.535156 16.453125 56.164062 16.300781 C 55.96875 16.265625 55.769531 16.253906 55.566406 16.269531 C 55.65625 16.425781 55.722656 16.589844 55.761719 16.765625 C 55.816406 16.832031 55.882812 16.886719 55.957031 16.933594 C 56.261719 17.015625 56.570312 17.085938 56.882812 17.144531 C 57.332031 17.363281 57.644531 17.707031 57.824219 18.179688 C 57.941406 18.453125 58.023438 18.734375 58.066406 19.023438 C 57.851562 18.589844 57.539062 18.253906 57.121094 18.015625 C 56.835938 17.949219 56.640625 18.054688 56.539062 18.332031 C 56.476562 18.835938 56.640625 19.238281 57.03125 19.550781 C 57.261719 19.648438 57.5 19.679688 57.75 19.640625 C 57.851562 19.601562 57.953125 19.570312 58.050781 19.550781 C 57.90625 19.722656 57.738281 19.863281 57.542969 19.96875 C 57.367188 20.023438 57.1875 20.054688 57.003906 20.058594 C 57.097656 20.183594 57.203125 20.300781 57.316406 20.40625 C 57.335938 20.429688 57.332031 20.449219 57.300781 20.464844 C 57.0625 20.304688 56.8125 20.160156 56.554688 20.03125 C 56.320312 19.964844 56.09375 19.972656 55.867188 20.058594 C 55.636719 20.164062 55.417969 20.285156 55.210938 20.421875 C 55.800781 20.789062 56.355469 21.199219 56.882812 21.652344 C 57.113281 21.808594 57.367188 21.871094 57.644531 21.851562 C 57.863281 21.847656 58.078125 21.828125 58.289062 21.789062 Z M 58.289062 21.789062 "/>
<path style=" stroke:none;fill-rule:evenodd;fill:rgb(255,242,0);fill-opacity:1;" d="M 48.363281 8.949219 C 48.542969 8.941406 48.589844 9.019531 48.496094 9.1875 C 48.320312 9.320312 48.136719 9.441406 47.945312 9.550781 C 47.96456 9.488281 47.914062 9.425781 47.957031 9.367188 C 48.078125 9.210938 48.214844 9.070312 48.363281 8.949219 Z M 48.363281 8.949219 "/>
<path style=" stroke:none;fill-rule:evenodd;fill:rgb(255,242,0);fill-opacity:1;" d="M 49.679688 9.066406 C 50.03125 9.03125 50.265625 9.183594 50.378906 9.519531 C 50.414062 9.605469 50.441406 9.695312 50.457031 9.789062 C 50.183594 9.78125 49.925781 9.726562 49.679688 9.625 C 49.554688 9.511719 49.464844 9.375 49.46456 9.21875 C 49.496094 9.160156 49.585938 9.109375 49.679688 9.066406 Z M 49.679688 9.066406 "/>
<path style=" stroke:none;fill-rule:evenodd;fill:rgb(255,242,0);fill-opacity:1;" d="M 53.773438 9.519531 C 54.003906 9.503906 54.128906 9.613281 54.148438 9.851562 C 54.179688 10.105469 54.074219 10.28125 53.832031 10.375 C 53.492188 10.464844 53.359375 10.339844 53.429688 10 C 53.507812 9.808594 53.621094 9.648438 53.773438 9.519531 Z M 53.773438 9.519531 "/>
<path style=" stroke:none;fill-rule:evenodd;fill:rgb(255,242,0);fill-opacity:1;" d="M 45.433594 10.480469 C 45.578125 10.492188 45.695312 10.5625 45.777344 10.691406 C 45.800781 10.890625 45.738281 11.050781 45.582031 11.171875 C 45.453125 10.960938 45.402344 10.730469 45.433594 10.480469 Z M 45.433594 10.480469 "/>
<path style=" stroke:none;fill-rule:evenodd;fill:rgb(255,242,0);fill-opacity:1;" d="M 51.203125 14.359375 C 51.253906 14.359375 51.300781 14.359375 51.351562 14.359375 C 51.070312 15.488281 50.539062 16.472656 49.765625 17.324219 C 49.609375 17.472656 49.425781 17.578125 49.214844 17.640625 C 49.496094 16.832031 49.835938 16.027344 50.230469 15.234375 C 50.449219 14.816406 50.773438 14.527344 51.203125 14.359375 Z M 51.203125 14.359375 "/>
<path style=" stroke:none;fill-rule:evenodd;fill:rgb(255,242,0);fill-opacity:1;" d="M 55.449219 18.449219 C 55.457031 18.433594 55.46875 18.421875 55.492188 18.421875 C 55.691406 18.476562 55.886719 18.539062 56.078125 18.617188 C 55.96875 18.695312 55.855469 18.757812 55.730469 18.8125 C 55.695312 18.804688 55.664062 18.785156 55.644531 18.75 C 55.585938 18.644531 55.519531 18.542969 55.449219 18.449219 Z M 55.449219 18.449219 "/>
<path style=" stroke:none;fill-rule:evenodd;fill:rgb(255,242,0);fill-opacity:1;" d="M 47.703125 19.445312 C 48.238281 19.371094 48.714844 19.496094 49.140625 19.820312 C 49.238281 19.90625 49.292969 20.011719 49.304688 20.136719 C 48.628906 19.816406 47.925781 19.734375 47.195312 19.894531 C 47.195312 19.796875 47.234375 19.714844 47.316406 19.640625 C 47.441406 19.558594 47.570312 19.492188 47.703125 19.445312 Z M 47.703125 19.445312 "/>
<path style=" stroke:none;fill-rule:evenodd;fill:rgb(255,242,0);fill-opacity:1;" d="M 39.511719 21.339844 C 39.617188 21.351562 39.71875 21.386719 39.8125 21.445312 C 40.300781 21.796875 40.734375 22.214844 41.113281 22.691406 C 41.328125 22.96875 41.53125 23.253906 41.722656 23.550781 C 41.65625 23.570312 41.585938 23.570312 41.515625 23.550781 C 40.628906 23.382812 39.742188 23.214844 38.855469 23.050781 C 39.066406 22.476562 39.285156 21.90625 39.511719 21.339844 Z M 39.511719 21.339844 "/>
<path style=" stroke:none;fill-rule:evenodd;fill:rgb(255,242,0);fill-opacity:1;" d="M 50.753906 21.878906 C 50.550781 21.890625 50.351562 21.878906 50.15625 21.851562 C 50.351562 21.773438 50.546875 21.695312 50.738281 21.609375 C 50.753906 21.699219 50.757812 21.789062 50.753906 21.878906 Z M 50.753906 21.878906 "/>
<path style=" stroke:none;fill-rule:evenodd;fill:rgb(32.941176%,26.27451%,7.058824%);fill-opacity:1;" d="M 58.289062 21.789062 C 58.351562 21.753906 58.421875 21.75 58.5 21.773438 C 58.480469 21.796875 58.460938 21.8125 58.4375 21.820312 C 58.394531 21.789062 58.347656 21.78125 58.289062 21.789062 Z M 58.289062 21.789062 "/>
<path style=" stroke:none;fill-rule:evenodd;fill:rgb(45.490196%,36.470588%,9.411765%);fill-opacity:1;" d="M 50.15625 21.851562 C 50.351562 21.878906 50.550781 21.890625 50.753906 21.878906 C 50.53125 21.914062 50.300781 21.917969 50.066406 21.894531 C 50.097656 21.878906 50.128906 21.863281 50.15625 21.851562 Z M 50.15625 21.851562 "/>
<path style=" stroke:none;fill-rule:evenodd;fill:rgb(255,242,0);fill-opacity:1;" d="M 43.816406 22.058594 C 43.839844 22.054688 43.859375 22.0625 43.878906 22.074219 C 43.664062 22.308594 43.5 22.574219 43.382812 22.871094 C 43.246094 23.226562 43.136719 23.585938 43.054688 23.953125 C 42.796875 23.109375 43.050781 22.476562 43.816406 22.058594 Z M 43.816406 22.058594 "/>
<path style=" stroke:none;fill-rule:evenodd;fill:rgb(74.117647%,59.215686%,15.686275%);fill-opacity:1;" d="M 64.386719 22.148438 C 64.378906 22.496094 64.386719 22.835938 64.417969 23.171875 C 64.402344 23.203125 64.386719 23.230469 64.375 23.261719 C 64.347656 22.886719 64.355469 22.515625 64.386719 22.148438 Z M 64.386719 22.148438 "/>
<path style=" stroke:none;fill-rule:evenodd;fill:rgb(255,242,0);fill-opacity:1;" d="M 52.64562 23.773438 C 52.191406 23.777344 52.269531 23.820312 52.324219 23.894531 C 52.871094 24.863281 53.40625 25.835938 53.9375 26.8125 C 54.019531 26.945312 54.074219 27.085938 54.64562 27.234375 C 54.050781 27.238281 54.003906 27.234375 53.953125 27.21875 C 53.476562 26.917969 53.64562 26.523438 52.832031 26.03125 C 52.511719 25.449219 52.265625 24.835938 52.085938 24.195312 C 52.0625 24.050781 52.066406 23.914062 52.64562 23.773438 Z M 52.64562 23.773438 "/>
<path style=" stroke:none;fill-rule:evenodd;fill:rgb(255,242,0);fill-opacity:1;" d="M 65.285156 28.527344 C 65.363281 28.609375 65.417969 28.710938 65.449219 28.828125 C 65.660156 30.136719 65.394531 31.339844 64.640625 32.4375 C 64.421875 32.75 64.136719 32.984375 63.789062 33.144531 C 63.761719 33.164062 63.730469 33.164062 63.699219 33.144531 C 64.152344 32.566406 64.527344 31.941406 64.820312 31.261719 C 64.921875 30.988281 65 30.707031 65.0625 30.421875 C 65.164062 29.792969 65.238281 29.160156 65.285156 28.527344 Z M 65.285156 28.527344 "/>
<path style=" stroke:none;fill-rule:evenodd;fill:rgb(255,242,0);fill-opacity:1;" d="M 47.015625 29.1875 C 47.078125 29.183594 47.140625 29.191406 47.195312 29.21875 C 47.984375 30.136719 48.765625 31.058594 49.542969 31.984375 C 49.5625 32.011719 49.558594 32.03125 49.527344 32.046875 C 49.011719 31.851562 48.554688 31.566406 48.152344 31.1875 C 47.601562 30.683594 47.128906 30.117188 46.734375 29.488281 C 46.710938 29.449219 46.710938 29.46456 46.734375 29.367188 C 46.835938 29.320312 46.929688 29.257812 47.015625 29.1875 Z M 47.015625 29.1875 "/>
<path style=" stroke:none;fill-rule:evenodd;fill:rgb(255,242,0);fill-opacity:1;" d="M 54.042969 30.511719 C 54.269531 30.710938 54.304688 30.941406 54.148438 31.203125 C 54.085938 31.28125 54.011719 31.339844 53.921875 31.382812 C 53.816406 31.078125 53.855469 30.785156 54.042969 30.511719 Z M 54.042969 30.511719 "/>
<path style=" stroke:none;fill-rule:evenodd;fill:rgb(7.45098%,6.666667%,0%);fill-opacity:1;" d="M 50.542969 41.308594 C 51.046875 41.339844 51.554688 41.347656 52.070312 41.339844 C 52.078125 41.28125 52.066406 41.230469 52.039062 41.1875 C 51.988281 40.925781 51.90625 40.675781 51.785156 40.4375 C 51.355469 39.640625 50.917969 38.847656 50.46875 38.058594 C 50.179688 37.511719 49.917969 36.953125 49.691406 36.375 C 49.382812 35.578125 49.289062 34.757812 49.46456 33.96456 C 50.140625 33.90625 50.714844 34.207031 51.128906 34.8125 C 51.488281 35.46456 51.859375 36 52.234375 36.585938 C 52.398438 36.761719 52.574219 36.929688 52.757812 37.082031 C 52.945312 37.1875 53.136719 37.289062 53.324219 37.382812 C 52.953125 38.40625 52.859375 39.453125 53.042969 40.527344 C 53.64562 40.707031 53.160156 40.886719 53.222656 41.066406 C 53.476562 41.632812 53.71875 42.203125 53.9375 42.78125 C 53.972656 43.019531 53.941406 43.25 53.847656 43.472656 C 53.765625 43.597656 53.652344 43.671875 53.503906 43.699219 C 53.039062 43.742188 52.589844 43.671875 52.160156 43.488281 C 51.476562 43.207031 50.789062 42.9375 50.097656 42.675781 C 49.296875 42.449219 48.476562 42.359375 47.644531 42.40625 C 47.292969 42.285156 46.945312 42.152344 46.597656 42.015625 C 46.507812 41.996094 46.417969 41.996094 46.328125 42.015625 C 45.761719 42.195312 45.183594 42.253906 44.59375 42.195312 C 44.64562 42.039062 43.6875 41.765625 43.355469 41.367188 C 43.183594 41.132812 43.019531 40.890625 42.859375 40.648438 C 43.039062 40.460938 43.25 40.316406 43.488281 40.210938 C 44.007812 40.191406 44.523438 40.179688 45.042969 40.179688 C 45.515625 40.230469 45.984375 40.300781 46.449219 40.390625 C 46.933594 40.382812 47.46456 40.421875 47.882812 40.511719 C 48.460938 40.730469 49.039062 40.953125 49.617188 41.171875 C 49.921875 41.265625 50.230469 41.308594 50.542969 41.308594 Z M 50.542969 41.308594 "/>
<path style=" stroke:none;fill-rule:evenodd;fill:rgb(255,242,0);fill-opacity:1;" d="M 59.722656 34.992188 C 59.839844 35.304688 59.941406 35.625 60.023438 35.953125 C 59.921875 35.953125 59.824219 35.953125 59.722656 35.953125 C 59.722656 35.632812 59.722656 35.3125 59.722656 34.992188 Z M 59.722656 34.992188 "/>
<path style=" stroke:none;fill-rule:evenodd;fill:rgb(255,242,0);fill-opacity:1;" d="M 54.402344 37.578125 C 54.433594 37.578125 54.460938 37.578125 54.492188 37.578125 C 54.484375 37.96875 54.378906 38.328125 54.175781 38.660156 C 54.148438 38.722656 54.64562 38.773438 54.042969 38.8125 C 54.023438 38.796875 54.007812 38.777344 54 38.75 C 53.972656 38.488281 53.980469 38.230469 54.027344 37.96875 C 54.117188 37.804688 54.242188 37.671875 54.402344 37.578125 Z M 54.402344 37.578125 "/>
<path style=" stroke:none;fill-rule:evenodd;fill:rgb(45.490196%,36.078431%,9.411765%);fill-opacity:1;" d="M 62.085938 40.253906 C 62.089844 40.546875 62.085938 40.835938 62.070312 41.128906 C 62.054688 41.097656 62.039062 41.066406 62.027344 41.039062 C 62.046875 40.777344 62.066406 40.515625 62.085938 40.253906 Z M 62.085938 40.253906 "/>
<path style=" stroke:none;fill-rule:evenodd;fill:rgb(23.921569%,19.607843%,3.921569%);fill-opacity:1;" d="M 52.039062 41.1875 C 52.066406 41.230469 52.078125 41.28125 52.070312 41.339844 C 51.554688 41.347656 51.046875 41.339844 50.542969 41.308594 C 51.042969 41.308594 51.542969 41.308594 52.039062 41.308594 C 52.039062 41.269531 52.039062 41.226562 52.039062 41.1875 Z M 52.039062 41.1875 "/>
<path style=" stroke:none;fill-rule:evenodd;fill:rgb(255,242,0);fill-opacity:1;" d="M 54.699219 41.277344 C 54.734375 41.285156 54.753906 41.3125 54.761719 41.351562 C 54.824219 41.628906 54.863281 41.90625 54.878906 42.179688 C 54.722656 42.074219 54.585938 41.945312 54.476562 41.789062 C 54.457031 41.738281 54.457031 41.6875 54.476562 41.640625 C 54.558594 41.523438 54.632812 41.402344 54.699219 41.277344 Z M 54.699219 41.277344 "/>
<path style=" stroke:none;fill-rule:evenodd;fill:rgb(255,242,0);fill-opacity:1;" d="M 51.261719 50.179688 C 51.363281 50.175781 51.460938 50.179688 51.5625 50.195312 C 51.476562 50.308594 51.382812 50.414062 51.277344 50.511719 C 51.261719 50.402344 51.257812 50.292969 51.261719 50.179688 Z M 51.261719 50.179688 "/>
</g>
</svg>
